<?xml version="1.0" encoding="UTF-8"?>
<svg xmlns="http://www.w3.org/2000/svg" xmlns:xlink="http://www.w3.org/1999/xlink" width="300px" height="70px" viewBox="0 0 301 70" version="1.1">
<g id="surface1">
<path style=" stroke:none;fill-rule:nonzero;fill:rgb(9.019608%,7.45098%,29.803922%);fill-opacity:1;" d="M 87.796875 35.765625 C 87.40625 35.914062 87.125 36.144531 86.949219 36.460938 C 86.8125 36.710938 86.738281 37.09375 86.71875 37.613281 C 86.699219 38.132812 86.6875 38.652344 86.6875 39.171875 L 86.6875 44.121094 C 86.550781 44.257812 86.21875 44.484375 85.683594 44.800781 C 85.148438 45.117188 84.496094 45.4375 83.730469 45.765625 C 82.960938 46.09375 82.113281 46.371094 81.179688 46.597656 C 80.246094 46.820312 79.3125 46.933594 78.378906 46.933594 C 76.53125 46.933594 74.878906 46.660156 73.421875 46.105469 C 71.964844 45.550781 70.734375 44.738281 69.734375 43.664062 C 68.730469 42.589844 67.964844 41.28125 67.429688 39.730469 C 66.894531 38.183594 66.628906 36.449219 66.628906 34.527344 C 66.628906 33.964844 66.675781 33.3125 66.773438 32.578125 C 66.871094 31.84375 67.042969 31.070312 67.285156 30.257812 C 67.527344 29.445312 67.867188 28.617188 68.304688 27.78125 C 68.742188 26.945312 69.289062 26.15625 69.949219 25.410156 C 70.882812 24.347656 72.03125 23.496094 73.390625 22.851562 C 74.753906 22.207031 76.40625 21.882812 78.347656 21.882812 C 79.515625 21.882812 80.542969 22.003906 81.4375 22.242188 C 82.332031 22.476562 83.085938 22.738281 83.699219 23.019531 C 84.308594 23.304688 84.78125 23.5625 85.113281 23.800781 C 85.441406 24.039062 85.625 24.15625 85.667969 24.15625 C 85.703125 24.15625 85.8125 24.023438 85.988281 23.75 C 86.164062 23.480469 86.375 23.152344 86.628906 22.765625 L 86.890625 22.765625 L 86.890625 30.15625 L 86.539062 30.15625 C 86.328125 29.140625 86.003906 28.179688 85.578125 27.277344 C 85.152344 26.371094 84.691406 25.625 84.207031 25.039062 C 83.585938 24.269531 82.789062 23.648438 81.816406 23.175781 C 80.84375 22.699219 79.753906 22.460938 78.550781 22.460938 C 77.269531 22.460938 76.109375 22.796875 75.082031 23.460938 C 74.050781 24.128906 73.175781 25.019531 72.457031 26.140625 C 71.738281 27.257812 71.183594 28.546875 70.792969 30.003906 C 70.40625 31.460938 70.210938 32.992188 70.210938 34.597656 C 70.210938 36.359375 70.394531 37.96875 70.765625 39.425781 C 71.136719 40.882812 71.671875 42.132812 72.367188 43.171875 C 73.070312 44.210938 73.921875 45.019531 74.933594 45.59375 C 75.945312 46.171875 77.101562 46.460938 78.402344 46.460938 C 79.335938 46.460938 80.207031 46.273438 81.011719 45.902344 C 81.820312 45.527344 82.457031 44.921875 82.921875 44.085938 C 83.078125 43.792969 83.195312 43.273438 83.273438 42.527344 C 83.351562 41.78125 83.390625 41.015625 83.390625 40.222656 C 83.390625 39.433594 83.355469 38.722656 83.289062 38.085938 C 83.21875 37.457031 83.019531 36.933594 82.691406 36.527344 C 82.242188 35.941406 81.457031 35.589844 80.328125 35.476562 L 80.328125 35.136719 L 88.871094 35.136719 L 88.871094 35.476562 C 88.542969 35.523438 88.183594 35.621094 87.796875 35.765625 "/>
<path style=" stroke:none;fill-rule:nonzero;fill:rgb(9.019608%,7.45098%,29.803922%);fill-opacity:1;" d="M 110.042969 46.765625 C 109.867188 46.5625 109.742188 46.410156 109.664062 46.308594 C 109.585938 46.207031 109.5 46.085938 109.402344 45.953125 C 109.304688 45.816406 109.183594 45.617188 109.039062 45.359375 C 108.890625 45.097656 108.664062 44.707031 108.351562 44.1875 C 107.984375 43.554688 107.660156 42.984375 107.375 42.476562 C 107.09375 41.96875 106.808594 41.464844 106.515625 40.96875 C 106.226562 40.472656 105.90625 39.96875 105.566406 39.460938 C 105.226562 38.953125 104.824219 38.382812 104.355469 37.746094 C 103.96875 37.230469 103.546875 36.742188 103.089844 36.289062 C 102.632812 35.839844 102.152344 35.554688 101.644531 35.441406 C 101.277344 35.351562 100.992188 35.304688 100.800781 35.304688 C 100.625 35.304688 100.402344 35.296875 100.128906 35.273438 L 100.128906 39.101562 C 100.128906 40.1875 100.140625 41.101562 100.160156 41.847656 C 100.179688 42.570312 100.199219 43.191406 100.214844 43.710938 C 100.234375 44.234375 100.34375 44.660156 100.539062 45 C 100.695312 45.292969 100.992188 45.59375 101.441406 45.898438 C 101.886719 46.203125 102.511719 46.378906 103.308594 46.425781 L 103.308594 46.761719 L 93.976562 46.761719 L 93.976562 46.425781 C 94.464844 46.335938 94.929688 46.199219 95.378906 46.015625 C 95.824219 45.835938 96.171875 45.566406 96.425781 45.203125 C 96.523438 45.066406 96.601562 44.863281 96.660156 44.59375 C 96.71875 44.320312 96.761719 44.015625 96.789062 43.675781 C 96.820312 43.339844 96.84375 42.976562 96.863281 42.59375 C 96.882812 42.210938 96.890625 41.835938 96.890625 41.476562 C 96.890625 41.160156 96.894531 40.730469 96.90625 40.1875 C 96.917969 39.644531 96.925781 39.050781 96.9375 38.40625 C 96.945312 37.761719 96.953125 37.101562 96.953125 36.421875 L 96.953125 27.847656 C 96.953125 27.441406 96.945312 27.027344 96.9375 26.609375 C 96.925781 26.191406 96.90625 25.796875 96.878906 25.421875 C 96.847656 25.050781 96.800781 24.710938 96.730469 24.40625 C 96.664062 24.101562 96.570312 23.882812 96.453125 23.746094 C 96.164062 23.382812 95.835938 23.140625 95.476562 23.015625 C 95.117188 22.890625 94.675781 22.785156 94.152344 22.695312 L 94.152344 22.355469 L 95.347656 22.355469 C 96.007812 22.355469 96.753906 22.351562 97.59375 22.339844 C 98.425781 22.328125 99.265625 22.320312 100.097656 22.320312 L 102.140625 22.320312 C 103.445312 22.320312 104.601562 22.367188 105.609375 22.457031 C 106.621094 22.546875 107.542969 22.851562 108.382812 23.375 C 109.234375 23.894531 109.925781 24.597656 110.453125 25.492188 C 110.976562 26.386719 111.238281 27.507812 111.238281 28.863281 C 111.238281 29.699219 111.105469 30.453125 110.84375 31.117188 C 110.582031 31.785156 110.230469 32.371094 109.792969 32.878906 C 109.355469 33.386719 108.847656 33.824219 108.265625 34.183594 C 107.679688 34.546875 107.070312 34.851562 106.425781 35.101562 L 106.425781 35.203125 C 106.757812 35.40625 107.078125 35.699219 107.386719 36.082031 C 107.699219 36.46875 108 36.898438 108.292969 37.371094 C 108.796875 38.230469 109.347656 39.15625 109.941406 40.152344 C 110.53125 41.144531 111.0625 42.027344 111.527344 42.796875 C 112.25 43.972656 112.949219 44.832031 113.628906 45.375 C 114.308594 45.914062 115.105469 46.265625 116.019531 46.425781 L 116.019531 46.761719 L 110.042969 46.761719 Z M 107.15625 25.648438 C 106.671875 24.765625 105.960938 24.066406 105.027344 23.546875 C 104.5625 23.296875 104.070312 23.117188 103.554688 23.003906 C 103.039062 22.890625 102.503906 22.832031 101.9375 22.832031 C 101.53125 22.832031 101.199219 22.84375 100.945312 22.867188 C 100.695312 22.890625 100.5 22.914062 100.363281 22.933594 C 100.34375 23.070312 100.324219 23.1875 100.304688 23.292969 C 100.285156 23.394531 100.273438 23.523438 100.261719 23.679688 C 100.253906 23.839844 100.242188 24.058594 100.234375 24.34375 C 100.222656 24.625 100.207031 25.027344 100.1875 25.546875 C 100.167969 26.335938 100.15625 27.226562 100.144531 28.222656 C 100.136719 29.21875 100.128906 30.179688 100.128906 31.105469 L 100.128906 34.832031 C 100.925781 34.832031 101.667969 34.792969 102.359375 34.714844 C 103.050781 34.636719 103.714844 34.472656 104.355469 34.222656 C 104.980469 33.996094 105.515625 33.691406 105.960938 33.308594 C 106.40625 32.921875 106.773438 32.488281 107.054688 32.003906 C 107.335938 31.515625 107.542969 30.992188 107.679688 30.425781 C 107.816406 29.859375 107.882812 29.273438 107.882812 28.664062 C 107.882812 27.535156 107.640625 26.53125 107.15625 25.648438 "/>
<path style=" stroke:none;fill-rule:nonzero;fill:rgb(9.019608%,7.45098%,29.803922%);fill-opacity:1;" d="M 130.859375 46.765625 L 130.859375 46.429688 C 130.917969 46.429688 131.058594 46.40625 131.285156 46.359375 C 131.507812 46.316406 131.742188 46.234375 131.984375 46.121094 C 132.226562 46.007812 132.441406 45.851562 132.625 45.648438 C 132.808594 45.445312 132.902344 45.183594 132.902344 44.867188 C 132.902344 44.664062 132.847656 44.332031 132.742188 43.867188 C 132.636719 43.40625 132.484375 42.839844 132.289062 42.171875 C 132.097656 41.507812 131.871094 40.765625 131.621094 39.953125 C 131.367188 39.140625 131.09375 38.292969 130.804688 37.410156 L 123.046875 37.410156 C 122.757812 38.269531 122.476562 39.089844 122.203125 39.867188 C 121.929688 40.648438 121.65625 41.433594 121.386719 42.226562 C 120.976562 43.445312 120.773438 44.304688 120.773438 44.800781 C 120.773438 45.09375 120.851562 45.339844 121.007812 45.53125 C 121.164062 45.722656 121.359375 45.882812 121.605469 46.003906 C 121.847656 46.128906 122.109375 46.222656 122.390625 46.277344 C 122.671875 46.332031 122.941406 46.382812 123.195312 46.429688 L 123.195312 46.769531 L 116.984375 46.769531 L 116.984375 46.394531 C 117.488281 46.328125 117.921875 46.167969 118.28125 45.917969 C 118.640625 45.671875 118.847656 45.5 118.90625 45.410156 C 119.042969 45.253906 119.265625 44.882812 119.578125 44.292969 C 119.890625 43.707031 120.265625 42.835938 120.714844 41.683594 C 121.121094 40.621094 121.578125 39.410156 122.085938 38.054688 C 122.589844 36.699219 123.109375 35.304688 123.644531 33.867188 C 124.179688 32.433594 124.710938 30.988281 125.234375 29.53125 C 125.761719 28.070312 126.253906 26.710938 126.722656 25.445312 L 126.429688 24.699219 C 126.78125 24.519531 127.097656 24.304688 127.378906 24.054688 C 127.660156 23.808594 127.910156 23.546875 128.121094 23.277344 C 128.335938 23.007812 128.515625 22.746094 128.660156 22.496094 C 128.808594 22.25 128.917969 22.046875 128.996094 21.886719 L 129.230469 21.886719 C 129.832031 23.765625 130.40625 25.542969 130.949219 27.226562 C 131.492188 28.910156 132.011719 30.53125 132.511719 32.089844 C 133.007812 33.648438 133.488281 35.160156 133.953125 36.617188 C 134.417969 38.074219 134.886719 39.515625 135.351562 40.9375 C 135.566406 41.636719 135.765625 42.21875 135.949219 42.683594 C 136.136719 43.148438 136.34375 43.671875 136.578125 44.257812 C 136.617188 44.351562 136.703125 44.507812 136.839844 44.734375 C 136.976562 44.960938 137.15625 45.191406 137.378906 45.429688 C 137.601562 45.664062 137.878906 45.875 138.210938 46.054688 C 138.539062 46.234375 138.925781 46.339844 139.375 46.359375 L 139.375 46.769531 L 130.859375 46.769531 Z M 127.042969 26.222656 C 126.925781 26.519531 126.753906 26.984375 126.53125 27.613281 C 126.308594 28.246094 126.03125 29.015625 125.699219 29.917969 C 125.371094 30.824219 125.003906 31.847656 124.609375 32.988281 C 124.210938 34.128906 123.777344 35.367188 123.308594 36.699219 L 130.570312 36.699219 C 130.238281 35.683594 129.90625 34.664062 129.5625 33.648438 C 129.222656 32.632812 128.894531 31.65625 128.574219 30.714844 C 128.25 29.777344 127.960938 28.921875 127.699219 28.140625 C 127.4375 27.359375 127.214844 26.722656 127.042969 26.222656 "/>
<path style=" stroke:none;fill-rule:nonzero;fill:rgb(9.019608%,7.45098%,29.803922%);fill-opacity:1;" d="M 159.84375 23.171875 C 159.453125 23.398438 159.09375 23.695312 158.765625 24.054688 C 158.433594 24.414062 158.117188 24.84375 157.816406 25.34375 C 157.515625 25.839844 157.191406 26.402344 156.839844 27.035156 C 156.605469 27.464844 156.28125 28.046875 155.863281 28.78125 C 155.445312 29.515625 155.015625 30.277344 154.578125 31.070312 C 154.140625 31.859375 153.71875 32.617188 153.3125 33.339844 C 152.902344 34.066406 152.582031 34.628906 152.347656 35.035156 L 152.347656 41.847656 C 152.347656 42.503906 152.363281 43.144531 152.394531 43.765625 C 152.421875 44.386719 152.515625 44.820312 152.671875 45.070312 C 152.960938 45.566406 153.339844 45.894531 153.808594 46.050781 C 154.273438 46.210938 154.722656 46.335938 155.148438 46.425781 L 155.148438 46.765625 L 146.167969 46.765625 L 146.167969 46.425781 C 146.675781 46.359375 147.117188 46.25 147.496094 46.105469 C 147.875 45.957031 148.277344 45.601562 148.703125 45.035156 C 148.800781 44.921875 148.875 44.730469 148.921875 44.460938 C 148.972656 44.191406 149.011719 43.882812 149.039062 43.542969 C 149.070312 43.207031 149.089844 42.84375 149.097656 42.460938 C 149.109375 42.078125 149.113281 41.703125 149.113281 41.34375 C 149.132812 40.710938 149.148438 39.957031 149.15625 39.089844 C 149.167969 38.21875 149.171875 37.164062 149.171875 35.917969 C 149.132812 35.851562 149.015625 35.636719 148.820312 35.277344 C 148.628906 34.914062 148.390625 34.46875 148.109375 33.9375 C 147.824219 33.40625 147.515625 32.8125 147.175781 32.15625 C 146.835938 31.503906 146.5 30.863281 146.167969 30.242188 C 145.835938 29.621094 145.527344 29.039062 145.234375 28.496094 C 144.945312 27.953125 144.699219 27.511719 144.507812 27.175781 C 144.136719 26.519531 143.800781 25.921875 143.5 25.378906 C 143.199219 24.835938 142.890625 24.371094 142.582031 23.988281 C 142.269531 23.605469 141.964844 23.300781 141.664062 23.074219 C 141.363281 22.847656 141.015625 22.722656 140.628906 22.699219 L 140.628906 22.359375 L 149.460938 22.359375 L 149.460938 22.699219 C 149.171875 22.722656 148.878906 22.757812 148.589844 22.804688 C 148.296875 22.847656 148.023438 22.921875 147.773438 23.023438 C 147.519531 23.125 147.316406 23.261719 147.160156 23.429688 C 147.003906 23.597656 146.929688 23.832031 146.929688 24.125 C 146.929688 24.417969 147.070312 24.863281 147.351562 25.460938 C 147.632812 26.0625 147.929688 26.667969 148.238281 27.277344 C 148.453125 27.683594 148.707031 28.175781 149 28.75 C 149.289062 29.324219 149.609375 29.9375 149.960938 30.582031 C 150.308594 31.226562 150.664062 31.886719 151.023438 32.5625 C 151.382812 33.242188 151.71875 33.886719 152.03125 34.496094 C 152.28125 34.066406 152.59375 33.519531 152.964844 32.851562 C 153.332031 32.1875 153.707031 31.507812 154.085938 30.820312 C 154.464844 30.128906 154.824219 29.46875 155.164062 28.835938 C 155.503906 28.203125 155.761719 27.707031 155.9375 27.34375 C 156.035156 27.164062 156.140625 26.953125 156.257812 26.71875 C 156.375 26.480469 156.488281 26.230469 156.59375 25.972656 C 156.699219 25.710938 156.792969 25.445312 156.871094 25.175781 C 156.949219 24.90625 156.988281 24.65625 156.988281 24.429688 C 156.988281 24.066406 156.910156 23.785156 156.757812 23.582031 C 156.601562 23.378906 156.402344 23.21875 156.15625 23.105469 C 155.914062 22.992188 155.648438 22.910156 155.355469 22.851562 C 155.066406 22.796875 154.78125 22.746094 154.511719 22.699219 L 154.511719 22.359375 L 161.246094 22.359375 L 161.246094 22.699219 C 160.699219 22.789062 160.230469 22.949219 159.84375 23.171875 "/>
<path style=" stroke:none;fill-rule:nonzero;fill:rgb(9.019608%,7.45098%,29.803922%);fill-opacity:1;" d="M 178.898438 43.003906 C 178.519531 43.863281 177.996094 44.597656 177.324219 45.207031 C 176.65625 45.816406 175.851562 46.269531 174.917969 46.5625 C 173.984375 46.855469 172.964844 47.003906 171.859375 47.003906 C 170.90625 47.003906 170.089844 46.9375 169.410156 46.800781 C 168.726562 46.664062 168.164062 46.5 167.71875 46.308594 C 167.269531 46.117188 166.933594 45.941406 166.710938 45.785156 C 166.488281 45.628906 166.347656 45.546875 166.289062 45.546875 C 166.230469 45.546875 166.101562 45.683594 165.910156 45.953125 C 165.714844 46.226562 165.539062 46.484375 165.382812 46.734375 L 165.121094 46.734375 L 165.03125 39.988281 L 165.324219 39.988281 C 165.5 40.597656 165.722656 41.191406 165.992188 41.769531 C 166.265625 42.34375 166.5625 42.886719 166.882812 43.394531 C 167.203125 43.902344 167.542969 44.351562 167.902344 44.734375 C 168.261719 45.117188 168.605469 45.414062 168.9375 45.617188 C 169.269531 45.820312 169.707031 46.023438 170.25 46.226562 C 170.792969 46.429688 171.320312 46.53125 171.824219 46.53125 C 173.261719 46.53125 174.429688 46.074219 175.324219 45.160156 C 176.214844 44.242188 176.664062 43.007812 176.664062 41.449219 C 176.664062 40.816406 176.578125 40.261719 176.402344 39.785156 C 176.226562 39.3125 175.988281 38.898438 175.6875 38.546875 C 175.386719 38.199219 175.03125 37.898438 174.625 37.648438 C 174.214844 37.402344 173.777344 37.175781 173.3125 36.972656 C 172.84375 36.769531 172.4375 36.597656 172.085938 36.464844 C 171.738281 36.328125 171.410156 36.199219 171.109375 36.074219 C 170.808594 35.949219 170.496094 35.824219 170.175781 35.703125 C 169.855469 35.578125 169.472656 35.414062 169.023438 35.210938 C 168.519531 34.984375 168.03125 34.671875 167.566406 34.277344 C 167.097656 33.882812 166.691406 33.417969 166.339844 32.886719 C 165.992188 32.359375 165.710938 31.769531 165.496094 31.125 C 165.28125 30.484375 165.175781 29.800781 165.175781 29.074219 C 165.175781 27.855469 165.367188 26.804688 165.75 25.921875 C 166.132812 25.042969 166.648438 24.308594 167.296875 23.71875 C 167.941406 23.132812 168.6875 22.699219 169.535156 22.414062 C 170.378906 22.132812 171.269531 21.992188 172.199219 21.992188 C 173.074219 21.992188 173.824219 22.074219 174.445312 22.246094 C 175.066406 22.414062 175.578125 22.601562 175.976562 22.804688 C 176.375 23.007812 176.679688 23.195312 176.882812 23.363281 C 177.085938 23.535156 177.199219 23.617188 177.21875 23.617188 C 177.273438 23.617188 177.394531 23.480469 177.582031 23.210938 C 177.765625 22.941406 177.933594 22.667969 178.089844 22.398438 L 178.410156 22.398438 L 178.410156 28.667969 L 178.089844 28.667969 C 177.859375 27.921875 177.554688 27.179688 177.1875 26.445312 C 176.816406 25.710938 176.390625 25.058594 175.902344 24.480469 C 175.417969 23.90625 174.863281 23.433594 174.242188 23.074219 C 173.617188 22.710938 172.929688 22.53125 172.171875 22.53125 C 171.566406 22.53125 171 22.632812 170.464844 22.835938 C 169.929688 23.039062 169.464844 23.34375 169.066406 23.75 C 168.667969 24.160156 168.355469 24.660156 168.132812 25.257812 C 167.910156 25.859375 167.796875 26.542969 167.796875 27.308594 C 167.796875 28.507812 168.105469 29.46875 168.726562 30.191406 C 169.347656 30.914062 170.152344 31.492188 171.140625 31.921875 C 171.527344 32.101562 171.890625 32.257812 172.230469 32.394531 C 172.570312 32.53125 172.90625 32.664062 173.234375 32.785156 C 173.5625 32.910156 173.898438 33.039062 174.238281 33.175781 C 174.578125 33.308594 174.929688 33.457031 175.300781 33.613281 C 176.617188 34.179688 177.640625 35 178.367188 36.074219 C 179.09375 37.144531 179.457031 38.484375 179.457031 40.089844 C 179.464844 41.171875 179.277344 42.144531 178.898438 43.003906 "/>
<path style=" stroke:none;fill-rule:nonzero;fill:rgb(9.019608%,7.45098%,29.803922%);fill-opacity:1;" d="M 205.359375 28.730469 C 205.203125 28.328125 205.019531 27.902344 204.804688 27.460938 C 204.589844 27.019531 204.371094 26.609375 204.148438 26.222656 C 203.925781 25.839844 203.707031 25.484375 203.492188 25.15625 C 203.277344 24.828125 203.09375 24.585938 202.9375 24.429688 C 202.53125 23.976562 202.085938 23.675781 201.613281 23.527344 C 201.136719 23.382812 200.527344 23.296875 199.789062 23.273438 C 199.421875 23.273438 199.097656 23.269531 198.828125 23.257812 C 198.554688 23.246094 198.28125 23.242188 198.011719 23.242188 L 196.085938 23.242188 C 196.085938 23.808594 196.082031 24.574219 196.070312 25.546875 C 196.0625 26.519531 196.058594 27.535156 196.058594 28.597656 L 196.058594 41.851562 C 196.058594 42.507812 196.070312 43.132812 196.101562 43.734375 C 196.128906 44.332031 196.222656 44.753906 196.378906 45.003906 C 196.667969 45.5 197.082031 45.839844 197.617188 46.019531 C 198.152344 46.203125 198.632812 46.335938 199.058594 46.429688 L 199.058594 46.765625 L 189.582031 46.765625 L 189.582031 46.429688 C 190.089844 46.359375 190.574219 46.246094 191.042969 46.089844 C 191.507812 45.929688 191.964844 45.558594 192.414062 44.96875 C 192.507812 44.855469 192.582031 44.671875 192.632812 44.410156 C 192.679688 44.152344 192.71875 43.855469 192.75 43.53125 C 192.777344 43.203125 192.796875 42.847656 192.804688 42.460938 C 192.816406 42.078125 192.820312 41.707031 192.820312 41.34375 C 192.820312 41.027344 192.824219 40.609375 192.835938 40.089844 C 192.84375 39.570312 192.855469 38.992188 192.863281 38.359375 C 192.875 37.730469 192.878906 37.074219 192.878906 36.394531 L 192.878906 23.242188 L 190.953125 23.242188 C 190.703125 23.242188 190.433594 23.25 190.152344 23.261719 C 189.871094 23.269531 189.542969 23.277344 189.175781 23.277344 C 188.4375 23.296875 187.828125 23.402344 187.351562 23.582031 C 186.875 23.761719 186.433594 24.078125 186.027344 24.53125 C 185.871094 24.6875 185.691406 24.925781 185.488281 25.242188 C 185.285156 25.558594 185.070312 25.902344 184.847656 26.277344 C 184.621094 26.648438 184.410156 27.050781 184.207031 27.480469 C 184 27.910156 183.839844 28.328125 183.722656 28.734375 L 183.460938 28.632812 L 184.335938 22.191406 C 184.78125 22.304688 185.195312 22.394531 185.574219 22.460938 C 185.953125 22.53125 186.503906 22.574219 187.222656 22.597656 C 187.960938 22.621094 188.621094 22.636719 189.203125 22.648438 C 189.789062 22.660156 190.351562 22.664062 190.894531 22.664062 L 196.4375 22.664062 C 197.019531 22.664062 197.582031 22.660156 198.128906 22.648438 C 198.671875 22.636719 199.234375 22.625 199.820312 22.613281 C 200.402344 22.601562 201.0625 22.597656 201.800781 22.597656 C 202.441406 22.574219 202.972656 22.511719 203.390625 22.410156 C 203.808594 22.308594 204.242188 22.179688 204.6875 22.019531 L 205.621094 28.632812 Z M 205.359375 28.730469 "/>
<path style=" stroke:none;fill-rule:nonzero;fill:rgb(9.019608%,7.45098%,29.803922%);fill-opacity:1;" d="M 229.996094 39.410156 C 229.414062 40.949219 228.621094 42.28125 227.621094 43.410156 C 226.617188 44.542969 225.453125 45.410156 224.121094 46.019531 C 222.789062 46.632812 221.375 46.9375 219.878906 46.9375 C 218.402344 46.9375 217 46.636719 215.679688 46.039062 C 214.359375 45.4375 213.203125 44.59375 212.210938 43.496094 C 211.21875 42.402344 210.4375 41.089844 209.863281 39.5625 C 209.289062 38.039062 209.003906 36.359375 209.003906 34.53125 C 209.003906 32.585938 209.304688 30.84375 209.90625 29.292969 C 210.507812 27.746094 211.320312 26.433594 212.339844 25.359375 C 213.359375 24.289062 214.558594 23.460938 215.929688 22.886719 C 217.296875 22.308594 218.742188 22.019531 220.257812 22.019531 C 221.910156 22.019531 223.390625 22.359375 224.703125 23.039062 C 226.015625 23.714844 227.128906 24.625 228.042969 25.765625 C 228.957031 26.90625 229.65625 28.222656 230.140625 29.714844 C 230.628906 31.207031 230.871094 32.765625 230.871094 34.394531 C 230.871094 36.203125 230.582031 37.875 229.996094 39.410156 M 226.804688 30.257812 C 226.5 28.855469 226.046875 27.585938 225.433594 26.445312 C 224.820312 25.304688 224.058594 24.378906 223.144531 23.664062 C 222.230469 22.953125 221.152344 22.597656 219.90625 22.597656 C 218.644531 22.597656 217.550781 22.953125 216.625 23.664062 C 215.703125 24.375 214.945312 25.296875 214.351562 26.425781 C 213.757812 27.558594 213.320312 28.839844 213.039062 30.273438 C 212.757812 31.710938 212.617188 33.160156 212.617188 34.628906 C 212.617188 36.167969 212.773438 37.648438 213.085938 39.070312 C 213.394531 40.496094 213.855469 41.75 214.46875 42.832031 C 215.082031 43.917969 215.847656 44.789062 216.773438 45.445312 C 217.695312 46.097656 218.769531 46.425781 219.996094 46.425781 C 221.21875 46.425781 222.285156 46.066406 223.1875 45.339844 C 224.089844 44.617188 224.84375 43.6875 225.445312 42.546875 C 226.046875 41.40625 226.5 40.121094 226.800781 38.699219 C 227.101562 37.273438 227.253906 35.851562 227.253906 34.425781 C 227.253906 33.050781 227.105469 31.660156 226.804688 30.257812 "/>
<path style=" stroke:none;fill-rule:nonzero;fill:rgb(9.019608%,7.45098%,29.803922%);fill-opacity:1;" d="M 257.566406 23.34375 C 257.128906 23.660156 256.792969 24.144531 256.558594 24.800781 C 256.421875 25.140625 256.335938 25.765625 256.296875 26.683594 C 256.257812 27.597656 256.21875 28.574219 256.179688 29.613281 C 256.140625 30.585938 256.105469 31.730469 256.078125 33.054688 C 256.050781 34.375 256.035156 35.796875 256.035156 37.308594 L 256.035156 39.476562 C 256.035156 40.269531 256.039062 41.078125 256.046875 41.902344 C 256.058594 42.726562 256.0625 43.546875 256.0625 44.359375 L 256.0625 46.5625 C 256.0625 46.65625 256.035156 46.726562 255.988281 46.785156 C 255.941406 46.839844 255.867188 46.867188 255.769531 46.867188 C 255.613281 46.867188 255.4375 46.753906 255.242188 46.53125 C 253.589844 44.316406 252.085938 42.28125 250.722656 40.429688 C 249.363281 38.574219 248.066406 36.808594 246.832031 35.121094 C 245.597656 33.441406 244.386719 31.796875 243.199219 30.191406 C 242.015625 28.585938 240.761719 26.925781 239.4375 25.207031 L 239.4375 39.511719 C 239.4375 40.664062 239.464844 41.707031 239.511719 42.628906 C 239.558594 43.558594 239.683594 44.246094 239.875 44.699219 C 240.089844 45.21875 240.425781 45.609375 240.882812 45.867188 C 241.339844 46.128906 241.964844 46.3125 242.761719 46.425781 L 242.761719 46.765625 L 235.589844 46.765625 L 235.589844 46.425781 C 236.058594 46.359375 236.523438 46.21875 236.988281 46.003906 C 237.453125 45.789062 237.824219 45.433594 238.097656 44.933594 C 238.367188 44.460938 238.542969 43.761719 238.621094 42.832031 C 238.699219 41.90625 238.757812 40.800781 238.796875 39.511719 C 238.835938 38.539062 238.863281 37.394531 238.886719 36.070312 C 238.90625 34.75 238.914062 33.332031 238.914062 31.816406 L 238.914062 27.679688 C 238.914062 27.230469 238.90625 26.675781 238.886719 26.019531 C 238.828125 25.367188 238.691406 24.828125 238.476562 24.410156 C 238.261719 23.992188 238.011719 23.664062 237.71875 23.425781 C 237.425781 23.1875 237.109375 23.019531 236.773438 22.917969 C 236.429688 22.816406 236.105469 22.742188 235.792969 22.699219 L 235.792969 22.359375 L 241.714844 22.359375 L 255.535156 41.136719 L 255.535156 29.613281 C 255.535156 28.710938 255.523438 27.847656 255.507812 27.019531 C 255.488281 26.195312 255.398438 25.546875 255.242188 25.070312 C 255.050781 24.4375 254.703125 23.925781 254.207031 23.527344 C 253.710938 23.132812 253 22.855469 252.066406 22.699219 L 252.066406 22.359375 L 259.296875 22.359375 L 259.296875 22.699219 C 258.578125 22.8125 258.003906 23.027344 257.566406 23.34375 "/>
<path style=" stroke:none;fill-rule:nonzero;fill:rgb(9.019608%,7.45098%,29.803922%);fill-opacity:1;" d="M 282.101562 46.765625 L 264.257812 46.765625 L 264.257812 46.429688 C 264.742188 46.339844 265.191406 46.191406 265.613281 45.988281 C 266.03125 45.785156 266.375 45.5 266.648438 45.140625 C 266.742188 45.003906 266.824219 44.808594 266.878906 44.546875 C 266.9375 44.285156 266.992188 43.988281 267.039062 43.648438 C 267.089844 43.308594 267.121094 42.953125 267.140625 42.582031 C 267.160156 42.207031 267.171875 41.839844 267.171875 41.480469 C 267.171875 41.164062 267.175781 40.734375 267.1875 40.191406 C 267.195312 39.648438 267.207031 39.054688 267.214844 38.410156 C 267.226562 37.765625 267.230469 37.105469 267.230469 36.429688 L 267.230469 27.851562 C 267.230469 27.445312 267.226562 27.027344 267.214844 26.597656 C 267.207031 26.167969 267.1875 25.761719 267.15625 25.375 C 267.128906 24.992188 267.082031 24.648438 267.011719 24.34375 C 266.945312 24.039062 266.851562 23.816406 266.734375 23.679688 C 266.445312 23.320312 266.132812 23.085938 265.800781 22.988281 C 265.46875 22.882812 265.042969 22.789062 264.519531 22.699219 L 264.519531 22.359375 L 280.613281 22.359375 L 282.597656 27.953125 L 282.304688 28.121094 C 280.730469 25.839844 279.253906 24.304688 277.875 23.511719 C 277.542969 23.332031 276.929688 23.171875 276.035156 23.035156 C 275.140625 22.902344 274.054688 22.832031 272.769531 22.832031 C 272.363281 22.832031 271.9375 22.851562 271.503906 22.882812 C 271.066406 22.917969 270.75 22.957031 270.554688 23.003906 C 270.515625 23.363281 270.480469 24.109375 270.453125 25.238281 C 270.421875 26.371094 270.40625 27.679688 270.40625 29.171875 L 270.40625 31.34375 C 270.40625 31.929688 270.410156 32.410156 270.421875 32.78125 C 270.429688 33.15625 270.4375 33.445312 270.4375 33.648438 L 270.4375 34.019531 L 271.019531 34.019531 C 271.3125 34.019531 271.648438 34.007812 272.027344 33.984375 C 272.40625 33.964844 272.785156 33.933594 273.164062 33.902344 C 273.542969 33.867188 273.859375 33.816406 274.113281 33.746094 C 274.695312 33.589844 275.179688 33.375 275.570312 33.105469 C 275.957031 32.832031 276.273438 32.507812 276.519531 32.121094 C 276.761719 31.738281 276.957031 31.289062 277.101562 30.78125 C 277.246094 30.273438 277.378906 29.703125 277.492188 29.070312 L 277.84375 29.070312 L 277.84375 39.746094 L 277.492188 39.746094 C 277.339844 39.023438 277.101562 38.277344 276.78125 37.511719 C 276.457031 36.742188 276.125 36.164062 275.773438 35.78125 C 275.460938 35.464844 275.089844 35.207031 274.652344 35 C 274.214844 34.796875 273.703125 34.675781 273.121094 34.628906 C 272.828125 34.605469 272.585938 34.589844 272.390625 34.578125 C 272.195312 34.566406 272.003906 34.5625 271.808594 34.5625 L 270.46875 34.5625 C 270.425781 34.878906 270.410156 35.339844 270.410156 35.949219 L 270.410156 40.019531 C 270.410156 40.378906 270.414062 40.726562 270.421875 41.050781 C 270.433594 41.378906 270.4375 41.65625 270.4375 41.882812 C 270.457031 42.605469 270.492188 43.289062 270.539062 43.933594 C 270.589844 44.578125 270.699219 45.058594 270.875 45.375 C 271.050781 45.6875 271.46875 45.914062 272.128906 46.050781 C 272.789062 46.1875 273.507812 46.253906 274.285156 46.253906 C 274.617188 46.253906 275.039062 46.242188 275.554688 46.222656 C 276.070312 46.199219 276.609375 46.140625 277.171875 46.050781 C 277.792969 45.960938 278.367188 45.785156 278.894531 45.523438 C 279.417969 45.265625 279.921875 44.898438 280.410156 44.421875 C 280.894531 43.949219 281.367188 43.367188 281.824219 42.675781 C 282.28125 41.988281 282.75 41.15625 283.238281 40.1875 L 283.558594 40.289062 Z M 282.101562 46.765625 "/>
<path style=" stroke:none;fill-rule:nonzero;fill:rgb(9.019608%,13.72549%,40.784314%);fill-opacity:1;" d="M 36.339844 10.203125 C 34.785156 10.316406 33.347656 10.640625 31.957031 11.113281 C 30.535156 11.597656 29.179688 12.230469 27.914062 13.042969 C 26.304688 14.078125 24.839844 15.277344 23.527344 16.667969 C 22.21875 18.054688 21.144531 19.597656 20.25 21.277344 C 19.402344 22.871094 18.789062 24.554688 18.386719 26.316406 C 17.9375 28.292969 17.777344 30.300781 17.910156 32.324219 C 18.050781 34.480469 18.507812 36.582031 19.304688 38.589844 C 20.039062 40.441406 21.003906 42.164062 22.230469 43.742188 C 23.46875 45.335938 24.832031 46.796875 26.441406 48.011719 C 28.039062 49.214844 29.777344 50.171875 31.675781 50.84375 C 33.445312 51.46875 35.265625 51.824219 37.140625 51.917969 C 38.425781 51.980469 39.707031 51.871094 40.988281 51.738281 C 42.566406 51.570312 44.097656 51.21875 45.597656 50.703125 C 46.949219 50.234375 48.246094 49.632812 49.476562 48.894531 C 50.824219 48.078125 52.0625 47.125 53.199219 46.035156 C 54.671875 44.621094 55.886719 43.011719 56.945312 41.269531 C 56.796875 41.726562 56.644531 42.183594 56.5 42.644531 C 56.351562 43.125 56.171875 43.59375 55.976562 44.054688 C 55.78125 44.511719 55.589844 44.972656 55.375 45.421875 C 54.757812 46.6875 54.105469 47.933594 53.25 49.054688 C 52.265625 50.34375 51.222656 51.578125 50.019531 52.679688 C 48.730469 53.855469 47.351562 54.902344 45.839844 55.769531 C 44.417969 56.585938 42.925781 57.242188 41.359375 57.738281 C 39.367188 58.375 37.335938 58.695312 35.253906 58.75 C 33.316406 58.800781 31.40625 58.589844 29.523438 58.125 C 27.507812 57.632812 25.609375 56.855469 23.789062 55.859375 C 23.03125 55.449219 22.3125 54.984375 21.628906 54.484375 C 20.703125 53.8125 19.832031 53.058594 19.019531 52.25 C 18.296875 51.527344 17.613281 50.777344 16.984375 49.972656 C 16.0625 48.796875 15.25 47.554688 14.554688 46.230469 C 13.976562 45.140625 13.488281 44.015625 13.078125 42.851562 C 12.585938 41.457031 12.230469 40.023438 11.996094 38.558594 C 11.773438 37.160156 11.648438 35.753906 11.65625 34.339844 C 11.667969 32.976562 11.78125 31.625 12.007812 30.277344 C 12.265625 28.738281 12.652344 27.234375 13.179688 25.765625 C 13.644531 24.46875 14.25 23.238281 14.886719 22.019531 C 15.289062 21.246094 15.757812 20.511719 16.269531 19.820312 C 17.363281 18.335938 18.585938 16.957031 19.984375 15.742188 C 21.496094 14.421875 23.144531 13.292969 24.945312 12.410156 C 26.8125 11.492188 28.773438 10.828125 30.835938 10.46875 C 32.453125 10.191406 34.074219 10.054688 35.714844 10.144531 C 35.804688 10.148438 35.898438 10.132812 35.992188 10.136719 C 36.078125 10.152344 36.171875 10.171875 36.339844 10.203125 "/>
<path style=" stroke:none;fill-rule:nonzero;fill:rgb(9.019608%,13.72549%,40.784314%);fill-opacity:1;" d="M 50.019531 21.917969 C 49.191406 21.773438 48.394531 21.757812 47.601562 21.824219 C 46.792969 21.890625 46 22.046875 45.230469 22.308594 C 44.253906 22.640625 43.328125 23.078125 42.457031 23.636719 C 41.59375 24.191406 40.828125 24.863281 40.140625 25.625 C 39.488281 26.351562 38.945312 27.15625 38.507812 28.023438 C 38.011719 29.003906 37.667969 30.035156 37.472656 31.113281 C 37.269531 32.261719 37.234375 33.425781 37.390625 34.582031 C 37.535156 35.648438 37.816406 36.679688 38.257812 37.667969 C 38.695312 38.664062 39.222656 39.609375 39.910156 40.453125 C 40.589844 41.296875 41.378906 42.023438 42.285156 42.621094 C 43.132812 43.179688 44.042969 43.605469 45.011719 43.902344 C 45.679688 44.101562 46.363281 44.214844 47.054688 44.308594 C 47.902344 44.425781 48.753906 44.441406 49.605469 44.367188 C 50.378906 44.296875 51.132812 44.152344 51.875 43.925781 C 52.6875 43.675781 53.464844 43.335938 54.203125 42.914062 C 55.15625 42.363281 56.003906 41.679688 56.789062 40.902344 C 56.648438 41.121094 56.511719 41.339844 56.375 41.566406 C 56.234375 41.796875 56.082031 42.019531 55.917969 42.234375 C 55.753906 42.449219 55.59375 42.667969 55.421875 42.875 C 54.9375 43.457031 54.429688 44.027344 53.835938 44.5 C 53.152344 45.046875 52.445312 45.5625 51.671875 45.980469 C 50.839844 46.429688 49.984375 46.800781 49.078125 47.054688 C 48.222656 47.300781 47.355469 47.449219 46.46875 47.507812 C 45.34375 47.578125 44.234375 47.484375 43.136719 47.238281 C 42.113281 47.011719 41.136719 46.652344 40.210938 46.164062 C 39.21875 45.640625 38.324219 44.988281 37.496094 44.226562 C 37.15625 43.914062 36.835938 43.574219 36.542969 43.222656 C 36.144531 42.75 35.785156 42.242188 35.464844 41.710938 C 35.179688 41.238281 34.917969 40.753906 34.691406 40.25 C 34.363281 39.511719 34.097656 38.753906 33.90625 37.96875 C 33.746094 37.320312 33.632812 36.667969 33.570312 36.003906 C 33.496094 35.207031 33.492188 34.410156 33.5625 33.609375 C 33.625 32.847656 33.742188 32.09375 33.933594 31.355469 C 34.117188 30.640625 34.351562 29.949219 34.644531 29.269531 C 34.980469 28.496094 35.378906 27.757812 35.847656 27.054688 C 36.257812 26.4375 36.734375 25.871094 37.230469 25.316406 C 37.542969 24.960938 37.882812 24.636719 38.242188 24.339844 C 39.007812 23.707031 39.828125 23.140625 40.71875 22.6875 C 41.6875 22.191406 42.695312 21.816406 43.753906 21.585938 C 44.855469 21.347656 45.96875 21.253906 47.097656 21.335938 C 47.980469 21.402344 48.847656 21.542969 49.699219 21.804688 C 49.746094 21.820312 49.796875 21.824219 49.847656 21.835938 C 49.890625 21.855469 49.933594 21.878906 50.019531 21.917969 "/>
<path style=" stroke:none;fill-rule:nonzero;fill:rgb(5.490196%,61.568627%,95.294118%);fill-opacity:1;" d="M 40.351562 13.171875 C 39.703125 13.328125 39.050781 13.441406 38.410156 13.625 C 37.519531 13.882812 36.648438 14.191406 35.816406 14.59375 C 34.902344 15.039062 34.023438 15.546875 33.195312 16.144531 C 30.878906 17.832031 29.074219 19.957031 27.761719 22.5 C 26.730469 24.503906 26.089844 26.632812 25.84375 28.871094 C 25.664062 30.472656 25.683594 32.070312 25.902344 33.671875 C 26.101562 35.097656 26.441406 36.484375 26.953125 37.820312 C 27.5 39.25 28.214844 40.59375 29.105469 41.839844 C 30.640625 43.980469 32.539062 45.71875 34.84375 47.003906 C 36.507812 47.933594 38.28125 48.554688 40.253906 48.886719 C 40.007812 48.9375 39.847656 48.964844 39.675781 48.964844 C 39.503906 48.96875 39.328125 49.019531 39.152344 49.03125 C 37.339844 49.113281 35.554688 48.964844 33.785156 48.492188 C 31.777344 47.953125 29.953125 47.058594 28.269531 45.851562 C 26.667969 44.703125 25.324219 43.289062 24.199219 41.679688 C 23.304688 40.402344 22.585938 39.027344 22.0625 37.558594 C 21.558594 36.160156 21.21875 34.726562 21.042969 33.242188 C 20.792969 31.152344 20.886719 29.082031 21.332031 27.027344 C 21.707031 25.285156 22.320312 23.632812 23.175781 22.0625 C 23.980469 20.582031 24.96875 19.238281 26.144531 18.046875 C 27.671875 16.496094 29.425781 15.273438 31.421875 14.390625 C 32.660156 13.84375 33.941406 13.457031 35.261719 13.21875 C 36.152344 13.054688 37.058594 12.996094 37.972656 12.992188 C 38.769531 12.996094 39.5625 13.046875 40.351562 13.171875 "/>
<path style=" stroke:none;fill-rule:nonzero;fill:rgb(28.235294%,79.215686%,96.078431%);fill-opacity:1;" d="M 57.730469 29.820312 C 57.460938 28.976562 57.136719 28.164062 56.746094 27.378906 C 55.261719 24.402344 53.003906 22.234375 49.992188 20.847656 C 48.890625 20.34375 47.765625 19.898438 46.574219 19.652344 C 44.828125 19.292969 43.085938 19.28125 41.335938 19.636719 C 39.300781 20.050781 37.460938 20.882812 35.847656 22.179688 C 33.40625 24.140625 31.613281 26.578125 30.703125 29.613281 C 30.257812 31.097656 30.0625 32.617188 30.121094 34.160156 C 30.167969 35.457031 30.390625 36.726562 30.796875 37.96875 C 31.25 39.359375 31.894531 40.652344 32.738281 41.847656 C 33.347656 42.710938 34.078125 43.46875 34.828125 44.203125 C 34.886719 44.261719 34.957031 44.300781 34.996094 44.4375 C 34.441406 44.113281 33.976562 43.738281 33.523438 43.355469 C 32.4375 42.445312 31.488281 41.402344 30.691406 40.226562 C 29.683594 38.730469 28.933594 37.113281 28.472656 35.359375 C 28.183594 34.269531 28.007812 33.164062 27.9375 32.035156 C 27.800781 29.886719 28.078125 27.796875 28.773438 25.761719 C 29.628906 23.25 31.011719 21.082031 32.953125 19.261719 C 34.171875 18.125 35.535156 17.207031 37.046875 16.53125 C 38.308594 15.960938 39.644531 15.597656 41.027344 15.421875 C 43.261719 15.136719 45.433594 15.378906 47.570312 16.101562 C 49.085938 16.613281 50.453125 17.390625 51.714844 18.359375 C 53.835938 19.988281 55.398438 22.066406 56.46875 24.507812 C 57.160156 26.082031 57.574219 27.738281 57.730469 29.457031 C 57.742188 29.574219 57.730469 29.699219 57.730469 29.820312 "/>
<path style=" stroke:none;fill-rule:nonzero;fill:rgb(28.235294%,79.215686%,96.078431%);fill-opacity:1;" d="M 57.238281 29.027344 C 56.871094 28.617188 56.480469 28.238281 56.058594 27.890625 C 54.464844 26.570312 52.632812 25.910156 50.570312 25.882812 C 49.816406 25.875 49.066406 25.910156 48.324219 26.070312 C 47.242188 26.304688 46.25 26.738281 45.34375 27.382812 C 44.289062 28.132812 43.457031 29.074219 42.867188 30.222656 C 41.972656 31.957031 41.570312 33.796875 41.820312 35.753906 C 41.941406 36.714844 42.214844 37.625 42.636719 38.488281 C 42.988281 39.214844 43.4375 39.882812 43.980469 40.484375 C 44.59375 41.164062 45.285156 41.734375 46.066406 42.203125 C 46.628906 42.539062 47.234375 42.785156 47.847656 43.011719 C 47.898438 43.03125 47.945312 43.035156 48.003906 43.105469 C 47.605469 43.058594 47.246094 42.964844 46.890625 42.863281 C 46.042969 42.617188 45.242188 42.265625 44.492188 41.796875 C 43.539062 41.203125 42.707031 40.472656 42 39.589844 C 41.5625 39.039062 41.183594 38.457031 40.855469 37.832031 C 40.238281 36.644531 39.867188 35.382812 39.746094 34.050781 C 39.601562 32.402344 39.839844 30.820312 40.484375 29.292969 C 40.890625 28.335938 41.433594 27.472656 42.121094 26.703125 C 42.695312 26.058594 43.363281 25.511719 44.101562 25.066406 C 45.300781 24.339844 46.597656 23.925781 47.996094 23.796875 C 48.988281 23.707031 49.960938 23.800781 50.921875 24.03125 C 52.539062 24.421875 53.949219 25.210938 55.175781 26.328125 C 55.96875 27.050781 56.621094 27.886719 57.144531 28.824219 C 57.179688 28.886719 57.207031 28.960938 57.238281 29.027344 "/>
</g>
</svg>
